<svg width="152" height="37" viewBox="0 0 152 37" fill="none" xmlns="http://www.w3.org/2000/svg">
<path fill-rule="evenodd" clip-rule="evenodd" d="M4.53628 0.751465C4.18457 0.751465 3.89945 1.03659 3.89945 1.3883V7.75665V12.0553C3.89945 12.3737 3.66063 12.6921 3.26261 12.6921H0.715273C0.363559 12.6921 0.0784378 12.9772 0.0784378 13.329V19.6973C0.0784378 20.049 0.363558 20.3341 0.715272 20.3341H3.26261C3.66063 20.3341 3.89945 20.6526 3.89945 20.971V35.6182C3.89945 35.9699 4.18457 36.255 4.53628 36.255H10.9046C11.2563 36.255 11.5415 35.9699 11.5415 35.6182V20.971C11.5415 20.6526 11.7803 20.3341 12.1783 20.3341H17.1138C17.4655 20.3341 17.7506 20.049 17.7506 19.6973V13.329C17.7506 12.9772 17.4655 12.6921 17.1138 12.6921H12.1783C11.7803 12.6921 11.5415 12.3737 11.5415 12.0553V9.03032C11.5415 8.7119 11.7803 8.39349 12.1783 8.39349H17.1138C17.4655 8.39349 17.7506 8.10837 17.7506 7.75665V1.3883C17.7506 1.03659 17.4655 0.751465 17.1138 0.751465H10.9046H4.53628Z" fill="#E3DDE4"/>
<path fill-rule="evenodd" clip-rule="evenodd" d="M34.5457 36.2551C42.3274 36.2551 48.6357 29.9468 48.6357 22.1652C48.6357 14.3835 42.3274 8.0752 34.5457 8.0752C26.764 8.0752 20.4557 14.3835 20.4557 22.1652C20.4557 29.9468 26.764 36.2551 34.5457 36.2551ZM34.5457 29.5378C38.6175 29.5378 41.9184 26.237 41.9184 22.1652C41.9184 18.0934 38.6175 14.7925 34.5457 14.7925C30.4739 14.7925 27.173 18.0934 27.173 22.1652C27.173 26.237 30.4739 29.5378 34.5457 29.5378Z" fill="#E3DDE4"/>
<path fill-rule="evenodd" clip-rule="evenodd" d="M51.3413 9.50817C51.3413 9.49469 51.3418 9.48131 51.3426 9.46804C51.3471 9.39474 51.3641 9.3248 51.3914 9.26029C51.4335 9.16072 51.5002 9.07409 51.5839 9.00802C51.6924 8.92242 51.8293 8.87134 51.9782 8.87134H58.3465H64.5557C64.9074 8.87134 65.1925 9.15646 65.1925 9.50817V15.8765C65.1925 16.2282 64.9074 16.5134 64.5557 16.5134H59.6202C59.2222 16.5134 58.9834 16.8318 58.9834 17.1502V35.6184C58.9834 35.9701 58.6982 36.2552 58.3465 36.2552H51.9782C51.6265 36.2552 51.3413 35.9701 51.3413 35.6184V15.8765V9.50817Z" fill="#E3DDE4"/>
<path fill-rule="evenodd" clip-rule="evenodd" d="M93.212 35.6185C93.212 35.9702 92.9269 36.2554 92.5752 36.2554H86.2068C85.8551 36.2554 85.57 35.9702 85.57 35.6185V32.198V20.6529V20.0957C85.57 17.3259 83.3246 15.0806 80.5549 15.0806C77.7851 15.0806 75.5398 17.3259 75.5398 20.0957V20.6529V32.198V35.6185C75.5398 35.9702 75.2547 36.2554 74.903 36.2554H68.5346C68.1829 36.2554 67.8978 35.9702 67.8978 35.6185V20.6529C67.8978 20.648 67.8978 20.6432 67.8979 20.6383C67.8978 20.6166 67.8978 20.595 67.8978 20.5733C67.8978 13.583 73.5645 7.91618 80.5549 7.91618C87.5452 7.91618 93.212 13.583 93.212 20.5733C93.212 20.595 93.2119 20.6167 93.2118 20.6383C93.2119 20.6432 93.212 20.648 93.212 20.6529V35.6185Z" fill="#E3DDE4"/>
<path fill-rule="evenodd" clip-rule="evenodd" d="M109.769 36.2551C109.747 36.2551 109.726 36.2541 109.704 36.252C102.063 36.0907 95.9174 29.8456 95.9174 22.1652C95.9174 14.3835 102.226 8.0752 110.007 8.0752C116.137 8.0752 124.655 12.135 123.938 25.1105C123.938 25.4622 123.653 25.7474 123.301 25.7474H122.665H110.246H109.609C107.851 25.7474 106.425 24.3218 106.425 22.5632C106.425 20.8046 107.851 19.379 109.609 19.379H110.246H116.868C115.768 16.6712 113.111 14.762 110.007 14.762C105.919 14.762 102.604 18.0765 102.604 22.1652C102.604 26.2461 105.906 29.5558 109.984 29.5684H123.301C123.653 29.5684 123.938 29.8535 123.938 30.2052V35.6183C123.938 35.97 123.653 36.2551 123.301 36.2551H110.007H109.769Z" fill="#E3DDE4"/>
<path fill-rule="evenodd" clip-rule="evenodd" d="M126.686 8.55358C126.686 8.20187 126.971 7.91675 127.323 7.91675H133.691C134.043 7.91675 134.328 8.20187 134.328 8.55358V11.9741V23.5192V24.0764C134.328 26.8462 136.573 29.0915 139.343 29.0915C142.113 29.0915 144.358 26.8462 144.358 24.0764V23.5192V11.9741V8.55358C144.358 8.20187 144.643 7.91675 144.995 7.91675H151.363C151.715 7.91675 152 8.20187 152 8.55358V23.5192C152 23.5241 152 23.5289 152 23.5338C152 23.5554 152 23.5771 152 23.5988C152 30.5891 146.333 36.2559 139.343 36.2559C132.353 36.2559 126.686 30.5891 126.686 23.5988C126.686 23.5771 126.686 23.5554 126.686 23.5338C126.686 23.5289 126.686 23.5241 126.686 23.5192V8.55358Z" fill="#E3DDE4"/>
</svg>
