<svg width="446" height="445" viewBox="0 0 446 445" fill="none" xmlns="http://www.w3.org/2000/svg">
<path d="M222.897 250.701C238.254 250.701 250.703 238.054 250.703 222.453C250.703 206.852 238.254 194.205 222.897 194.205C207.539 194.205 195.09 206.852 195.09 222.453C195.09 238.054 207.539 250.701 222.897 250.701Z" fill="#E3DDE4"/>
<path d="M385.872 70.4643C298.647 -22.7547 149.733 -23.6455 61.5347 68.7635C5.19516 127.805 -12.4768 210.171 8.59986 283.872C9.08624 285.734 10.9507 286.868 12.8152 286.382C31.0546 282.009 50.9964 286.949 65.2637 301.122C66.4796 302.337 67.5335 303.552 68.5873 304.767C69.479 305.82 70.8571 306.306 72.1541 305.982C84.3138 303.147 97.284 304.362 108.714 309.788C110.579 310.679 112.767 309.788 113.497 307.845C116.496 300.555 119.09 293.185 121.36 285.734C121.846 284.196 121.198 282.576 119.82 281.685C102.959 271.075 84.3948 264.434 65.2637 261.68C86.9889 239.975 117.712 232.686 145.436 239.894C147.22 240.38 149.165 239.327 149.733 237.546C156.299 217.541 167.567 198.752 183.455 182.878C214.989 151.373 257.791 138.171 298.89 143.112C300.512 143.274 301.809 144.651 302.052 146.27C307.078 187.332 293.783 230.095 262.25 261.599C246.361 277.473 227.554 288.731 207.531 295.291C205.748 295.858 204.775 297.721 205.18 299.584C212.395 327.282 205.099 357.977 183.374 379.682C180.699 360.65 173.971 342.022 163.351 325.176C162.46 323.799 160.838 323.152 159.298 323.637C151.84 325.824 144.463 328.497 137.168 331.493C135.303 332.303 134.411 334.409 135.222 336.272C140.653 347.772 141.869 360.65 139.032 372.798C138.708 374.094 139.194 375.471 140.248 376.362C141.545 377.415 142.761 378.548 143.896 379.682C158.082 393.855 163.027 413.86 158.65 432.082C158.244 433.945 159.379 435.808 161.163 436.294C236.471 457.837 320.94 438.967 380.279 379.682C465.72 294.724 467.585 157.852 385.872 70.4643Z" fill="#E3DDE4"/>
</svg>
