<?xml version="1.0" encoding="UTF-8"?>
<svg width="272" height="83" viewBox="0 0 272 83" fill="none" xmlns="http://www.w3.org/2000/svg">
<path d="M41.1538 46.2872C43.9892 46.2872 46.2878 43.9521 46.2878 41.0717C46.2878 38.1913 43.9892 35.8562 41.1538 35.8562C38.3183 35.8562 36.0198 38.1913 36.0198 41.0717C36.0198 43.9521 38.3183 46.2872 41.1538 46.2872Z" fill="#E3DDE4"/>
<path d="M71.2442 13.0099C55.1397 -4.20123 27.6454 -4.36571 11.3613 12.6959C0.959191 23.5968 -2.30361 38.8042 1.58781 52.4117C1.67761 52.7556 2.02185 52.9649 2.36609 52.8752C5.73366 52.0677 9.41555 52.9799 12.0497 55.5967C12.2742 55.821 12.4688 56.0453 12.6634 56.2696C12.828 56.464 13.0825 56.5537 13.3219 56.4939C15.567 55.9705 17.9617 56.1948 20.0721 57.1967C20.4163 57.3612 20.8204 57.1967 20.9551 56.8378C21.5089 55.492 21.9878 54.1313 22.4069 52.7556C22.4967 52.4715 22.377 52.1724 22.1225 52.0079C19.0094 50.0491 15.582 48.8229 12.0497 48.3145C16.0609 44.307 21.7334 42.9612 26.8521 44.2921C27.1814 44.3818 27.5406 44.1874 27.6454 43.8584C28.8577 40.165 30.9381 36.6958 33.8716 33.765C39.6938 27.9482 47.5964 25.5108 55.1846 26.423C55.484 26.4529 55.7235 26.7071 55.7684 27.0061C56.6963 34.5874 54.2417 42.4827 48.4196 48.2995C45.486 51.2304 42.0137 53.3089 38.3168 54.5201C37.9876 54.6248 37.808 54.9687 37.8828 55.3126C39.2148 60.4266 37.8678 66.0939 33.8567 70.1013C33.3627 66.5873 32.1205 63.1481 30.1598 60.0378C29.9952 59.7836 29.6958 59.664 29.4115 59.7537C28.0345 60.1574 26.6725 60.6509 25.3255 61.2042C24.9812 61.3537 24.8166 61.7425 24.9663 62.0864C25.9691 64.2098 26.1936 66.5873 25.6697 68.8303C25.6098 69.0696 25.6996 69.3238 25.8942 69.4883C26.1337 69.6827 26.3582 69.892 26.5677 70.1013C29.187 72.7181 30.0999 76.4116 29.2917 79.7761C29.2169 80.12 29.4264 80.4639 29.7557 80.5536C43.66 84.5312 59.2557 81.0471 70.2115 70.1013C85.9867 54.4154 86.331 29.1445 71.2442 13.0099Z" fill="#E3DDE4"/>
<path fill-rule="evenodd" clip-rule="evenodd" d="M101.265 20.5359C100.858 20.5359 100.529 20.8657 100.529 21.2726V28.6398V33.6126C100.529 33.9809 100.252 34.3493 99.7919 34.3493H96.8451C96.4382 34.3493 96.1083 34.6791 96.1083 35.086V42.4532C96.1083 42.8601 96.4382 43.1899 96.8451 43.1899H99.7919C100.252 43.1899 100.529 43.5582 100.529 43.9266V60.8711C100.529 61.2779 100.858 61.6078 101.265 61.6078H108.633C109.039 61.6078 109.369 61.2779 109.369 60.8711V43.9266C109.369 43.5582 109.645 43.1899 110.106 43.1899H115.815C116.222 43.1899 116.552 42.8601 116.552 42.4532V35.086C116.552 34.6791 116.222 34.3493 115.815 34.3493H110.106C109.645 34.3493 109.369 33.9809 109.369 33.6126V30.1132C109.369 29.7448 109.645 29.3765 110.106 29.3765H115.815C116.222 29.3765 116.552 29.0466 116.552 28.6398V21.2726C116.552 20.8657 116.222 20.5359 115.815 20.5359H108.633H101.265Z" fill="#E3DDE4"/>
<path fill-rule="evenodd" clip-rule="evenodd" d="M135.981 61.608C144.984 61.608 152.281 54.3103 152.281 45.3081C152.281 36.306 144.984 29.0083 135.981 29.0083C126.979 29.0083 119.682 36.306 119.682 45.3081C119.682 54.3103 126.979 61.608 135.981 61.608ZM135.981 53.8371C140.692 53.8371 144.51 50.0186 144.51 45.3081C144.51 40.5977 140.692 36.7791 135.981 36.7791C131.271 36.7791 127.452 40.5977 127.452 45.3081C127.452 50.0186 131.271 53.8371 135.981 53.8371Z" fill="#E3DDE4"/>
<path fill-rule="evenodd" clip-rule="evenodd" d="M155.411 30.6659C155.411 30.6503 155.412 30.6348 155.413 30.6195C155.418 30.5347 155.438 30.4538 155.469 30.3792C155.518 30.264 155.595 30.1637 155.692 30.0873C155.817 29.9883 155.976 29.9292 156.148 29.9292H163.515H170.698C171.105 29.9292 171.435 30.259 171.435 30.6659V38.0331C171.435 38.4399 171.105 38.7698 170.698 38.7698H164.989C164.528 38.7698 164.252 39.1381 164.252 39.5065V60.8712C164.252 61.2781 163.922 61.608 163.515 61.608H156.148C155.741 61.608 155.411 61.2781 155.411 60.8712V38.0331V30.6659Z" fill="#E3DDE4"/>
<path fill-rule="evenodd" clip-rule="evenodd" d="M203.849 60.8712C203.849 61.2781 203.519 61.6079 203.112 61.6079H195.745C195.338 61.6079 195.008 61.2781 195.008 60.8712V56.9142V43.5584V42.9137C195.008 39.7096 192.411 37.1121 189.207 37.1121C186.002 37.1121 183.405 39.7096 183.405 42.9137V43.5584V56.9142V60.8712C183.405 61.2781 183.075 61.6079 182.668 61.6079H175.301C174.894 61.6079 174.564 61.2781 174.564 60.8712V43.5584C174.564 43.5527 174.564 43.5471 174.565 43.5415C174.564 43.5164 174.564 43.4914 174.564 43.4663C174.564 35.3796 181.12 28.824 189.207 28.824C197.293 28.824 203.849 35.3796 203.849 43.4663C203.849 43.4914 203.849 43.5164 203.849 43.5415C203.849 43.5471 203.849 43.5527 203.849 43.5584V60.8712Z" fill="#E3DDE4"/>
<path fill-rule="evenodd" clip-rule="evenodd" d="M223.002 61.608C222.977 61.608 222.952 61.6067 222.928 61.6043C214.088 61.4178 206.979 54.1932 206.979 45.3081C206.979 36.306 214.276 29.0083 223.278 29.0083C230.369 29.0083 240.223 33.7049 239.394 48.7154C239.394 49.1223 239.064 49.4522 238.657 49.4522H237.921H223.555H222.818C220.784 49.4522 219.134 47.803 219.134 45.7686C219.134 43.7342 220.784 42.085 222.818 42.085H223.555H231.216C229.942 38.9525 226.868 36.7438 223.278 36.7438C218.549 36.7438 214.714 40.5782 214.714 45.3081C214.714 50.0291 218.534 53.8579 223.252 53.8724H238.657C239.064 53.8724 239.394 54.2023 239.394 54.6092V60.8712C239.394 61.2781 239.064 61.608 238.657 61.608H223.278H223.002Z" fill="#E3DDE4"/>
<path fill-rule="evenodd" clip-rule="evenodd" d="M242.573 29.5612C242.573 29.1543 242.903 28.8245 243.309 28.8245H250.677C251.083 28.8245 251.413 29.1543 251.413 29.5612V33.5182V46.874V47.5186C251.413 50.7228 254.011 53.3202 257.215 53.3202C260.419 53.3202 263.017 50.7228 263.017 47.5186V46.874V33.5182V29.5612C263.017 29.1543 263.346 28.8245 263.753 28.8245H271.12C271.527 28.8245 271.857 29.1543 271.857 29.5612V46.874C271.857 46.8796 271.857 46.8853 271.857 46.8909C271.857 46.9159 271.857 46.941 271.857 46.9661C271.857 55.0528 265.302 61.6083 257.215 61.6083C249.128 61.6083 242.573 55.0528 242.573 46.9661C242.573 46.941 242.573 46.9159 242.573 46.8909C242.573 46.8852 242.573 46.8796 242.573 46.874V29.5612Z" fill="#E3DDE4"/>
</svg>
